# xmcd CD database file
#
# Track frame offsets:
#	150
#	13912
#	32555
#	50860
#	68040
#	84771
#	103350
#	123046
#	141485
#	158196
#	176754
#	194866
#	213018
#	231807
#	252284
#
# Disc length: 3606 seconds
#
# Revision: 0
# Processed by: cddbd v1.5.2PL0 Copyright (c) Steve Scherf et al.
# Submitted via: CdAid (MTCDDB.DLL V2003.12.21)
#
DISCID=d70e140f
DTITLE=Various Artist - Karoke Country Volume 5 disc 2
DYEAR=2006
DGENRE=Country
TTITLE0=Picking Wildflowers  - Keith Anderson
TTITLE1=Making Memories of us - Keith Urban
TTITLE2=The Woman with You - Kenny Chesney
TTITLE3=I may hate Myself in the morning - LeeAnn Womack
TTITLE4=Me and Charlie talking - Miranda Lambert
TTITLE5=Something to be proud of - Montgomery Gentry
TTITLE6=Fast Cars and Freedom - Rascall Flatts
TTITLE7=My sister - Reba McEntire
TTITLE8=He gets that from me - Reba McEntire
TTITLE9=A real fine place to start - Sara Evans
TTITLE10=Dont - Shania Twain
TTITLE11=I think the world needs a drink - terri clark
TTITLE12=Arlington - Trace Adkins
TTITLE13=Georgia Rain - Trisha Yearwood
TTITLE14=Help Somebody - Van Zant
EXTD=ID3G:   2 YEAR: 2006
EXTT0=
EXTT1=
EXTT2=
EXTT3=
EXTT4=
EXTT5=
EXTT6=
EXTT7=
EXTT8=
EXTT9=
EXTT10=
EXTT11=
EXTT12=
EXTT13=
EXTT14=
PLAYORDER=
